<svg width="800" height="500" viewBox="0 0 800 500" fill="none" xmlns="http://www.w3.org/2000/svg">
  <defs>
    <linearGradient id="bg" x1="0" y1="0" x2="1" y2="1">
      <stop offset="0" stop-color="#0b0f14"/>
      <stop offset="1" stop-color="#0e131a"/>
    </linearGradient>
    <linearGradient id="neon" x1="0" y1="0" x2="1" y2="0">
      <stop offset="0" stop-color="#7C3AED"/>
      <stop offset="1" stop-color="#22D3EE"/>
    </linearGradient>
  </defs>
  <rect width="800" height="500" rx="16" fill="url(#bg)"/>
  <g opacity="0.5" stroke="#243042">
    <!-- grid -->
    <g>
      <path d="M0 50 H800"/><path d="M0 100 H800"/><path d="M0 150 H800"/>
      <path d="M0 200 H800"/><path d="M0 250 H800"/><path d="M0 300 H800"/>
      <path d="M0 350 H800"/><path d="M0 400 H800"/><path d="M0 450 H800"/>
      <path d="M50 0 V500"/><path d="M100 0 V500"/><path d="M150 0 V500"/>
      <path d="M200 0 V500"/><path d="M250 0 V500"/><path d="M300 0 V500"/>
      <path d="M350 0 V500"/><path d="M400 0 V500"/><path d="M450 0 V500"/>
      <path d="M500 0 V500"/><path d="M550 0 V500"/><path d="M600 0 V500"/>
      <path d="M650 0 V500"/><path d="M700 0 V500"/><path d="M750 0 V500"/>
    </g>
  </g>
  <!-- marker -->
  <g filter="url(#f)">
    <circle cx="520" cy="220" r="10" fill="#22D3EE"/>
    <circle cx="520" cy="220" r="22" stroke="url(#neon)" stroke-width="3" fill="none"/>
  </g>
  <defs>
    <filter id="f" x="480" y="180" width="80" height="80" color-interpolation-filters="sRGB">
      <feGaussianBlur stdDeviation="4"/>
    </filter>
  </defs>
  <text x="24" y="36" fill="#9aa4b2" font-family="Inter, Arial" font-size="16">Map Placeholder</text>
</svg>

